<?xml version="1.0" standalone="no"?>
<!DOCTYPE svg PUBLIC "-//W3C//DTD SVG 20010904//EN"
 "http://www.w3.org/TR/2001/REC-SVG-20010904/DTD/svg10.dtd">
<svg version="1.0" xmlns="http://www.w3.org/2000/svg"
 width="48.000000pt" height="48.000000pt" viewBox="0 0 48.000000 48.000000"
 preserveAspectRatio="xMidYMid meet">

<g transform="translate(0.000000,48.000000) scale(0.100000,-0.100000)"
fill="#000000" stroke="none">
<path d="M177 436 c-67 -25 -117 -86 -117 -143 0 -17 -9 -36 -21 -47 -19 -15
-20 -24 -15 -69 9 -67 27 -93 68 -99 26 -4 38 0 56 19 20 22 22 31 16 72 -4
28 -16 55 -30 70 -29 29 -29 37 -4 79 40 65 129 92 177 54 27 -22 63 -82 63
-106 0 -10 -6 -24 -14 -30 -11 -8 -13 -25 -9 -64 7 -66 34 -90 86 -75 l32 9
-3 64 c-2 39 -9 69 -17 75 -7 6 -16 27 -20 47 -21 112 -144 183 -248 144z
m142 -21 c50 -26 101 -104 101 -157 0 -21 -32 9 -50 48 -29 59 -72 94 -117 94
-69 0 -138 -51 -150 -112 -7 -37 -33 -37 -33 1 0 36 36 89 79 118 40 27 126
31 170 8z m-172 -232 c-3 -10 -5 -4 -5 12 0 17 2 24 5 18 2 -7 2 -21 0 -30z
m220 -30 c-3 -10 -5 -2 -5 17 0 19 2 27 5 18 2 -10 2 -26 0 -35z m-210 -25
c-3 -8 -6 -5 -6 6 -1 11 2 17 5 13 3 -3 4 -12 1 -19z"/>
</g>
</svg>
